<svg id="RouteLayer" xmlns="http://www.w3.org/2000/svg" viewBox="0 0 43 53"><defs><style>.cls-1{fill:none;stroke:#000;stroke-miterlimit:10;}</style></defs><title>flow_icon</title><path id="flow_icon" class="cls-1" d="M28.5.5a6,6,0,1,1-6,6A6,6,0,0,1,28.5.5Zm-22,40a6,6,0,1,1-6,6A6,6,0,0,1,6.5,40.5Zm30,0a6,6,0,1,1-6,6A6,6,0,0,1,36.5,40.5Zm-8-20a4,4,0,1,1-4,4A4,4,0,0,1,28.5,20.5Zm0-8v8m-.69,8.07a7,7,0,0,1-.38,3.22,7.64,7.64,0,0,1-.72,1.39C25.82,34.52,21.85,38.54,14,40a30.59,30.59,0,0,1-7.47.47m30,0a11.14,11.14,0,0,1-7.08-3,10.87,10.87,0,0,1-2.71-4.32"/></svg>