<svg id="图层_1" data-name="图层 1" xmlns="http://www.w3.org/2000/svg" viewBox="0 0 43 53"><defs><style>.cls-1{fill:#fff;stroke:#000;stroke-miterlimit:10;}</style></defs><title>flow_icon</title><circle class="cls-1" cx="28.5" cy="6.5" r="6"/><circle class="cls-1" cx="6.5" cy="46.5" r="6"/><circle class="cls-1" cx="36.5" cy="46.5" r="6"/><circle class="cls-1" cx="28.5" cy="24.5" r="4"/><line class="cls-1" x1="28.5" y1="12.5" x2="28.5" y2="20.5"/><path class="cls-1" d="M37.07,33.2a4.52,4.52,0,0,0-1.36,2.34c-.34,1.66.66,2.37.42,3.14-.85,2.77-15.31-1.63-19.88,4a6.25,6.25,0,0,0-1.18,2.47" transform="translate(-8.57 -4.7)"/><path class="cls-1" d="M45.07,45.2a9.68,9.68,0,0,1-7.08-3,8.7,8.7,0,0,1-1.86-3.48" transform="translate(-8.57 -4.7)"/></svg>